<svg width="512" height="186" viewBox="0 0 512 186" fill="none" xmlns="http://www.w3.org/2000/svg">
<path d="M23.3594 48.6484C16.9271 46.7995 12.2396 44.5339 9.29688 41.8516C6.38021 39.1432 4.92188 35.8099 4.92188 31.8516C4.92188 27.3724 6.70573 23.6745 10.2734 20.7578C13.8672 17.8151 18.5286 16.3438 24.2578 16.3438C28.1641 16.3438 31.6406 17.099 34.6875 18.6094C37.7604 20.1198 40.1302 22.2031 41.7969 24.8594C43.4896 27.5156 44.3359 30.4193 44.3359 33.5703H36.7969C36.7969 30.1328 35.7031 27.4375 33.5156 25.4844C31.3281 23.5052 28.2422 22.5156 24.2578 22.5156C20.5599 22.5156 17.6693 23.3359 15.5859 24.9766C13.5286 26.5911 12.5 28.8438 12.5 31.7344C12.5 34.0521 13.4766 36.0182 15.4297 37.6328C17.4089 39.2214 20.7552 40.6797 25.4688 42.0078C30.2083 43.3359 33.9062 44.8073 36.5625 46.4219C39.2448 48.0104 41.224 49.8724 42.5 52.0078C43.8021 54.1432 44.4531 56.6562 44.4531 59.5469C44.4531 64.1562 42.6562 67.8542 39.0625 70.6406C35.4688 73.401 30.6641 74.7812 24.6484 74.7812C20.7422 74.7812 17.0964 74.0391 13.7109 72.5547C10.3255 71.0443 7.70833 68.987 5.85938 66.3828C4.03646 63.7786 3.125 60.8229 3.125 57.5156H10.6641C10.6641 60.9531 11.9271 63.6745 14.4531 65.6797C17.0052 67.6589 20.4036 68.6484 24.6484 68.6484C28.6068 68.6484 31.6406 67.8411 33.75 66.2266C35.8594 64.612 36.9141 62.4115 36.9141 59.625C36.9141 56.8385 35.9375 54.6901 33.9844 53.1797C32.0312 51.6432 28.4896 50.1328 23.3594 48.6484ZM93.3984 23.2969H75.1172V74H67.6562V23.2969H49.4141V17.125H93.3984V23.2969ZM130.117 59.1562H106.289L100.938 74H93.2031L114.922 17.125H121.484L143.242 74H135.547L130.117 59.1562ZM108.555 52.9844H127.891L118.203 26.3828L108.555 52.9844ZM171.758 50.9922H158.398V74H150.859V17.125H169.688C176.094 17.125 181.016 18.5833 184.453 21.5C187.917 24.4167 189.648 28.6615 189.648 34.2344C189.648 37.776 188.685 40.862 186.758 43.4922C184.857 46.1224 182.201 48.0885 178.789 49.3906L192.148 73.5312V74H184.102L171.758 50.9922ZM158.398 44.8594H169.922C173.646 44.8594 176.602 43.8958 178.789 41.9688C181.003 40.0417 182.109 37.4635 182.109 34.2344C182.109 30.7188 181.055 28.0234 178.945 26.1484C176.862 24.2734 173.841 23.3229 169.883 23.2969H158.398V44.8594ZM236.367 23.2969H218.086V74H210.625V23.2969H192.383V17.125H236.367V23.2969ZM284.844 17.125V55.7969C284.818 61.1615 283.125 65.5495 279.766 68.9609C276.432 72.3724 271.901 74.2865 266.172 74.7031L264.18 74.7812C257.956 74.7812 252.995 73.1016 249.297 69.7422C245.599 66.3828 243.724 61.7604 243.672 55.875V17.125H251.094V55.6406C251.094 59.7552 252.227 62.9583 254.492 65.25C256.758 67.5156 259.987 68.6484 264.18 68.6484C268.424 68.6484 271.667 67.5156 273.906 65.25C276.172 62.9844 277.305 59.7943 277.305 55.6797V17.125H284.844ZM304.18 51.7344V74H296.68V17.125H317.656C323.88 17.125 328.75 18.7135 332.266 21.8906C335.807 25.0677 337.578 29.2734 337.578 34.5078C337.578 40.0286 335.846 44.2865 332.383 47.2812C328.945 50.25 324.01 51.7344 317.578 51.7344H304.18ZM304.18 45.6016H317.656C321.667 45.6016 324.74 44.6641 326.875 42.7891C329.01 40.888 330.078 38.1536 330.078 34.5859C330.078 31.2005 329.01 28.4922 326.875 26.4609C324.74 24.4297 321.81 23.375 318.086 23.2969H304.18V45.6016ZM21.0547 141.555L14.1016 148.781V168H6.60156V111.125H14.1016V139.25L39.375 111.125H48.4375L26.0547 136.242L50.1953 168H41.2109L21.0547 141.555ZM64.8047 168H57.3047V111.125H64.8047V168ZM116.68 117.297H98.3984V168H90.9375V117.297H72.6953V111.125H116.68V117.297ZM165.859 149.953C165.156 155.969 162.93 160.617 159.18 163.898C155.456 167.154 150.495 168.781 144.297 168.781C137.578 168.781 132.188 166.372 128.125 161.555C124.089 156.737 122.07 150.292 122.07 142.219V136.75C122.07 131.464 123.008 126.815 124.883 122.805C126.784 118.794 129.466 115.721 132.93 113.586C136.393 111.424 140.404 110.344 144.961 110.344C151.003 110.344 155.846 112.036 159.492 115.422C163.138 118.781 165.26 123.443 165.859 129.406H158.32C157.669 124.875 156.25 121.594 154.062 119.562C151.901 117.531 148.867 116.516 144.961 116.516C140.169 116.516 136.406 118.286 133.672 121.828C130.964 125.37 129.609 130.409 129.609 136.945V142.453C129.609 148.625 130.898 153.534 133.477 157.18C136.055 160.826 139.661 162.648 144.297 162.648C148.464 162.648 151.654 161.711 153.867 159.836C156.107 157.935 157.591 154.641 158.32 149.953H165.859ZM219.844 168H212.305V141.711H183.633V168H176.133V111.125H183.633V135.578H212.305V111.125H219.844V168ZM265.312 141.711H240.664V161.867H269.297V168H233.164V111.125H268.906V117.297H240.664V135.578H265.312V141.711ZM322.344 168H314.805L286.172 124.172V168H278.633V111.125H286.172L314.883 155.148V111.125H322.344V168Z" fill="black"/>
<path d="M374.373 55.1449H387.471V176C387.471 177.105 386.575 178 385.471 178H376.373C375.268 178 374.373 177.105 374.373 176V55.1449Z" fill="black"/>
<ellipse cx="381" cy="37" rx="17" ry="29" fill="black"/>
<path d="M412.225 64.413H425.324V179C425.324 180.105 424.428 181 423.324 181H414.225C413.121 181 412.225 180.105 412.225 179V64.413Z" fill="black"/>
<path fill-rule="evenodd" clip-rule="evenodd" d="M405.039 10.5072C404.487 10.5072 404.039 10.9549 404.039 11.5072V41.8478H408.951V11.5072C408.951 10.9549 408.503 10.5072 407.951 10.5072H405.039ZM421.412 10.5072C420.859 10.5072 420.412 10.955 420.412 11.5072V41.8478H417.137V11.5072C417.137 10.955 416.69 10.5072 416.137 10.5072H413.225C412.673 10.5072 412.225 10.955 412.225 11.5072V41.8478H404.039V54.3841L412.225 64.413H425.324L433.51 54.3841V41.8478V11.5072C433.51 10.955 433.062 10.5072 432.51 10.5072H429.598C429.046 10.5072 428.598 10.955 428.598 11.5072V41.8478H425.324V11.5072C425.324 10.955 424.876 10.5072 424.324 10.5072H421.412Z" fill="black"/>
<path d="M440 29.3116H453.098V179C453.098 180.105 452.203 181 451.098 181H442C440.895 181 440 180.105 440 179V29.3116Z" fill="black"/>
<path d="M440 29.5706C440.602 24.2576 439.668 23.9501 441.347 20.2239C448.081 15.239 444.041 9.00793 446.734 8.38482C448.977 7.38612 453.133 8.42089 455.252 10.4554C457.371 12.4899 460.203 18.8946 461.55 23.3395C462.896 27.7844 462.703 30.0894 462.866 35.5841C463.093 43.2791 462.621 47.1403 461.55 52.0026C460.478 56.865 460.402 59.7957 458.182 63.2186C456.162 66.3342 454.815 68.2035 450.775 73.1884V37.6711L440 29.5706Z" fill="black"/>
</svg>
